<svg width="32" height="32" viewBox="0 0 32 32" fill="none" xmlns="http://www.w3.org/2000/svg">
<g id="Frame">
<path id="Vector" d="M30.6387 7.58366C29.6825 5.93491 27.1587 5.56366 23.3262 6.50116C21.5519 5.12921 19.4284 4.28238 17.1969 4.05687C14.9654 3.83135 12.7154 4.2362 10.7025 5.22541C8.68955 6.21462 6.99441 7.74855 5.80961 9.65293C4.62481 11.5573 3.99786 13.7558 3.99997 15.9987C4.00013 16.5131 4.0327 17.0271 4.09747 17.5374C0.636224 21.1237 0.686224 23.2487 1.36247 24.4137C1.99997 25.5187 3.32997 25.9987 5.07997 25.9987C6.295 25.9735 7.50287 25.8057 8.67872 25.4987C10.4532 26.8693 12.5765 27.7149 14.8074 27.9395C17.0383 28.1642 19.2876 27.7588 21.2997 26.7695C23.3118 25.7801 25.0063 24.2464 26.1906 22.3426C27.375 20.4387 28.0018 18.2409 28 15.9987C28.0002 15.4867 27.9681 14.9753 27.9037 14.4674C29.4662 12.8424 30.5062 11.2987 30.86 9.97741C31.1037 9.06241 31.03 8.25741 30.6387 7.58366ZM16 5.99866C18.2649 6.00099 20.4622 6.77108 22.233 8.1832C24.0038 9.59532 25.2436 11.5661 25.75 13.7737C23.6175 15.7812 20.7312 17.8399 17.9912 19.4149C14.5475 21.3912 11.56 22.6237 9.17747 23.2987C7.71007 21.9301 6.68869 20.1514 6.2463 18.1942C5.80392 16.237 5.96103 14.1919 6.69717 12.3252C7.43332 10.4586 8.7144 8.85678 10.3736 7.72838C12.0329 6.59997 13.9934 5.99725 16 5.99866ZM3.09247 23.4099C2.90997 23.0962 3.01122 22.5049 3.36997 21.7849C3.72473 21.1103 4.15635 20.479 4.65622 19.9037C5.15172 21.3393 5.91524 22.6678 6.90622 23.8187C4.74997 24.1812 3.40497 23.9499 3.09247 23.4099ZM16 25.9987C14.3139 26.0004 12.6551 25.5728 11.18 24.7562C13.8876 23.7986 16.5001 22.5908 18.9837 21.1487C21.6812 19.5999 24.0687 17.9212 25.9925 16.2637C25.9212 18.8676 24.8376 21.3412 22.9718 23.1589C21.1059 24.9767 18.6049 25.9954 16 25.9987ZM28.9275 9.45991C28.715 10.2487 28.1537 11.1512 27.3487 12.1012C26.8545 10.6638 26.0909 9.33384 25.0987 8.18241C26.875 7.88866 28.52 7.91116 28.9112 8.58741C29.0237 8.78366 29.03 9.07741 28.9275 9.45991Z" fill="#99D72F"/>
</g>
</svg>
